<?xml version="1.0" encoding="iso-8859-1"?>
<!-- Generator: Adobe Illustrator 16.0.0, SVG Export Plug-In . SVG Version: 6.00 Build 0)  -->
<!DOCTYPE svg PUBLIC "-//W3C//DTD SVG 1.1//EN" "http://www.w3.org/Graphics/SVG/1.1/DTD/svg11.dtd">
<svg version="1.1" xmlns="http://www.w3.org/2000/svg" xmlns:xlink="http://www.w3.org/1999/xlink" x="0px" y="0px"
   viewBox="0 0 14 17" style="enable-background:new 0 0 14 17;" xml:space="preserve">
<g id="Clipboard_Checkmark_1">
  <path style="fill-rule:evenodd;clip-rule:evenodd;" d="M9,1H8c0-1-0.447-1-1-1S6,0,6,1H5C4.354,1,4,1.465,4,2.048v1.5
    C4,3.825,4.224,4,4.5,4h5C9.776,4,10,3.825,10,3.548v-1.5C10,1.465,9.729,1,9,1z"/>
  <path d="M11,2v2.548C11,4.825,10.776,5,10.5,5h-7C3.224,5,3,4.825,3,4.548V2H1C0.45,2,0,2.499,0,3.048v13C0,16.598,0.45,17,1,17h12
    c0.55,0,1-0.402,1-0.952v-13C14,2.499,13.55,2,13,2H11z M10.869,8.545l-4.443,4.473c-0.174,0.175-0.455,0.175-0.629,0L3.13,10.477
    c-0.173-0.176-0.173-0.459,0-0.633l0.629-0.633c0.174-0.175,0.454-0.175,0.628,0l1.725,1.593l3.502-3.524
    c0.174-0.174,0.454-0.174,0.628,0l0.628,0.633C11.043,8.087,11.043,8.369,10.869,8.545z"/>
</g>
<g>
</g>
<g>
</g>
<g>
</g>
<g>
</g>
<g>
</g>
<g>
</g>
<g>
</g>
<g>
</g>
<g>
</g>
<g>
</g>
<g>
</g>
<g>
</g>
<g>
</g>
<g>
</g>
<g>
</g>
</svg>
