<?xml version="1.0" encoding="UTF-8" standalone="no"?>
<svg width="28px" height="19px" viewBox="0 0 28 19" version="1.1" xmlns="http://www.w3.org/2000/svg" xmlns:xlink="http://www.w3.org/1999/xlink" xmlns:sketch="http://www.bohemiancoding.com/sketch/ns">
    <title>icon-view</title>
    <description>Created with Sketch (http://www.bohemiancoding.com/sketch)</description>
    <defs></defs>
    <g id="Design" stroke="none" stroke-width="1" fill="none" fill-rule="evenodd" sketch:type="MSPage">
        <g id="SM2-Search" sketch:type="MSArtboardGroup" transform="translate(-717.000000, -101.000000)" fill="#0A0B09">
            <g id="rows" sketch:type="MSLayerGroup" transform="translate(40.000000, 40.000000)">
                <g id="search-item" sketch:type="MSShapeGroup">
                    <g id="actions" transform="translate(677.000000, 21.000000)">
                        <g id="icon-view" transform="translate(0.000000, 40.000000)">
                            <path d="M13.4845926,6.33333333 C11.7625926,6.33333333 10.3703704,7.75041667 10.3703704,9.5 C10.3703704,11.2495833 11.7625926,12.6666667 13.4845926,12.6666667 C15.1988148,12.6666667 16.5925926,11.2495833 16.5925926,9.5 C16.5925926,7.75041667 15.1988148,6.33333333 13.4845926,6.33333333" id="Fill-487"></path>
                            <path d="M13.483037,15.8333333 C10.0452593,15.8333333 7.25925926,12.9975833 7.25925926,9.5 C7.25925926,6.00241667 10.0452593,3.16666667 13.483037,3.16666667 C16.9177037,3.16666667 19.7037037,6.00241667 19.7037037,9.5 C19.7037037,12.9975833 16.9177037,15.8333333 13.483037,15.8333333 L13.483037,15.8333333 Z M13.9879678,0 C8.53030508,0 3.29113751,3.33925 0.315516688,8.71783333 C0.315516688,8.71783333 0.21491461,8.89991667 0.0891620134,9.12633333 C-0.0350186759,9.34958333 -0.0287310461,9.71216667 0.103309181,9.93225 L0.343811022,10.33125 C3.50334502,15.5974167 8.86040564,19 13.9879678,19 C19.0935232,19 24.1849315,15.8206667 27.606974,10.4959167 C27.606974,10.4959167 27.7295828,10.3043333 27.8820578,10.0668333 C28.0361047,9.83091667 28.0392486,9.44616667 27.8914893,9.2055 L27.6226931,8.77325 C24.1644967,3.19833333 19.1956972,0 13.9879678,0 L13.9879678,0 Z" id="Fill-488"></path>
                        </g>
                    </g>
                </g>
            </g>
        </g>
    </g>
</svg>