<?xml version="1.0" encoding="UTF-8" standalone="no"?>
<svg viewBox="0 0 35 35" version="1.1" xmlns="http://www.w3.org/2000/svg" xmlns:xlink="http://www.w3.org/1999/xlink" xmlns:sketch="http://www.bohemiancoding.com/sketch/ns">
    <g id="Design" stroke="none" stroke-width="1" fill="none" fill-rule="evenodd" sketch:type="MSPage">
        <g id="SM2-Search" sketch:type="MSArtboardGroup" transform="translate(-126.000000, -553.000000)" fill="#969696">
            <g id="menu" sketch:type="MSLayerGroup" transform="translate(0.000000, 540.000000)">
                <g id="Fill-375-+-Fill-376" transform="translate(126.000000, 13.000000)" sketch:type="MSShapeGroup">
                    <path d="M15.3125,10.9375 C14.1028125,10.9375 13.125,11.9153125 13.125,13.125 L13.125,19.6875 C13.125,20.8971875 14.1028125,21.875 15.3125,21.875 L21.875,21.875 C23.0846875,21.875 24.0625,20.8971875 24.0625,19.6875 C24.0625,18.4778125 23.0846875,17.5 21.875,17.5 L17.5,17.5 L17.5,13.125 C17.5,11.9153125 16.5221875,10.9375 15.3125,10.9375" id="Fill-375"></path>
                    <path d="M33.4534375,1.54875 L29.9840625,5.018125 L29.93375,5.0684375 C26.6765625,1.9184375 22.085,0 17.5,0 C7.8509375,0 0,7.8509375 0,17.5 C0,27.1490625 7.8509375,35 17.5,35 C25.309375,35 32.0490625,29.9753125 34.27375,22.4984375 C34.619375,21.34125 33.95875,20.1228125 32.8015625,19.7771875 C31.6465625,19.4315625 30.4259375,20.094375 30.0803125,21.2515625 C28.4134375,26.8559375 23.358125,30.625 17.5,30.625 C10.2615625,30.625 4.375,24.7384375 4.375,17.5 C4.375,10.2615625 10.2615625,4.375 17.5,4.375 C20.908125,4.375 24.425625,5.7990625 26.8734375,8.12875 L23.4215625,11.5784375 C22.56625,12.43375 22.8528125,13.125 24.0625,13.125 L33.90625,13.125 C34.51,13.125 35,12.6371875 35,12.0334375 L35,2.1896875 C35,0.98 34.3065625,0.6934375 33.4534375,1.54875" id="Fill-376"></path>
                </g>
            </g>
        </g>
    </g>
</svg>
