<?xml version="1.0" encoding="UTF-8" standalone="no"?>
<svg width="46px" height="46px" viewBox="0 0 46 46" version="1.1" xmlns="http://www.w3.org/2000/svg" xmlns:xlink="http://www.w3.org/1999/xlink" xmlns:sketch="http://www.bohemiancoding.com/sketch/ns">
    <title>icon-error</title>
    <description>Created with Sketch (http://www.bohemiancoding.com/sketch)</description>
    <defs></defs>
    <g id="Design" stroke="none" stroke-width="1" fill="none" fill-rule="evenodd" sketch:type="MSPage">
        <g id="SM2-Search-1" sketch:type="MSArtboardGroup" transform="translate(-68.000000, -388.000000)" fill="#0A0B09">
            <g id="rows" sketch:type="MSLayerGroup" transform="translate(40.000000, 40.000000)">
                <g id="search-item-copy-2" transform="translate(0.000000, 320.000000)" sketch:type="MSShapeGroup">
                    <path d="M58.2031914,54.3501792 C59.2656029,55.4125906 59.2656029,57.1407799 58.2031914,58.2031914 C57.1379468,59.2656029 55.4125906,59.2656029 54.3501792,58.2031914 L50.5,54.3501792 L46.6469878,58.2031914 C45.5845763,59.2656029 43.8620532,59.2656029 42.7968086,58.2031914 C41.7343971,57.1407799 41.7343971,55.4125906 42.7968086,54.3501792 L46.6469878,50.5 L42.7968086,46.6498208 C41.7343971,45.5874094 41.7343971,43.8620532 42.7968086,42.7968086 C43.8620532,41.7343971 45.5845763,41.7343971 46.6469878,42.7968086 L50.5,46.6498208 L54.3501792,42.7968086 C55.4125906,41.7343971 57.1379468,41.7343971 58.2031914,42.7968086 C59.2656029,43.8620532 59.2656029,45.5874094 58.2031914,46.6498208 L54.3501792,50.5 L58.2031914,54.3501792 L58.2031914,54.3501792 Z M51,28 C38.29825,28 28,38.29825 28,51 C28,63.70175 38.29825,74 51,74 C63.70175,74 74,63.70175 74,51 C74,38.29825 63.70175,28 51,28 L51,28 Z" id="icon-error"></path>
                </g>
            </g>
        </g>
    </g>
</svg>