<?xml version="1.0" encoding="UTF-8" standalone="no"?>
<svg width="54px" height="57px" viewBox="0 0 54 57" version="1.1" xmlns="http://www.w3.org/2000/svg" xmlns:xlink="http://www.w3.org/1999/xlink" xmlns:sketch="http://www.bohemiancoding.com/sketch/ns">
    <title>icon-download</title>
    <description>Created with Sketch (http://www.bohemiancoding.com/sketch)</description>
    <defs></defs>
    <g id="Design" stroke="none" stroke-width="1" fill="none" fill-rule="evenodd" sketch:type="MSPage">
        <g id="SM2-Search" sketch:type="MSArtboardGroup" transform="translate(-64.000000, -282.000000)" fill="#0A0B09">
            <g id="rows" sketch:type="MSLayerGroup" transform="translate(40.000000, 40.000000)">
                <g id="search-item-copy" transform="translate(0.000000, 220.000000)" sketch:type="MSShapeGroup">
                    <g id="icon-download" transform="translate(24.000000, 22.000000)">
                        <path d="M7,44 L48,44 L48,51 L7,51 L7,44 Z M53.989875,40.081125 C53.9865,39.669375 53.902125,39.2745 53.753625,38.8965 C53.706375,38.78175 53.632125,38.683875 53.57475,38.5725 C53.4465,38.332875 53.30475,38.1 53.11575,37.894125 C53.0145,37.779375 52.903125,37.684875 52.785,37.583625 C52.68375,37.49925 52.6095,37.39125 52.498125,37.317 L42.373125,30.567 C41.81625,30.199125 41.164875,30 40.5,30 L13.5,30 C12.835125,30 12.180375,30.199125 11.626875,30.567 L1.501875,37.317 C1.3905,37.39125 1.31625,37.49925 1.211625,37.583625 C1.096875,37.684875 0.9855,37.779375 0.88425,37.894125 C0.69525,38.1 0.550125,38.332875 0.42525,38.575875 C0.3645,38.683875 0.293625,38.78175 0.246375,38.8965 C0.097875,39.2745 0.0135,39.669375 0.010125,40.081125 C0.010125,40.098 0,40.108125 0,40.125 L0,53.625 C0,55.491375 1.508625,57 3.375,57 L50.625,57 C52.491375,57 54,55.491375 54,53.625 L54,40.125 C54,40.108125 53.989875,40.098 53.989875,40.081125 L53.989875,40.081125 Z" id="Fill-715"></path>
                        <path d="M25.9232796,22.4143015 C26.5166426,23.1864153 27.4800239,23.1995577 28.0767204,22.4274438 L36.7004839,11.4995683 C37.2971804,10.7241689 36.9738309,9.85677285 35.9837815,9.85677285 L30.3334996,9.85677285 L30.3334996,1.64279548 C30.3334996,0.739257964 29.5867957,0 28.6667498,0 L25.3332502,0 C24.4098708,0 23.6665004,0.739257964 23.6665004,1.64279548 L23.6665004,9.85677285 L18.0162185,9.85677285 C17.0261691,9.85677285 16.7028196,10.7274545 17.2995161,11.4995683 L25.9232796,22.4143015" id="Fill-716"></path>
                    </g>
                </g>
            </g>
        </g>
    </g>
</svg>