<?xml version="1.0" encoding="UTF-8" ?>
<svg viewBox="0 0 35 35" version="1.1" xmlns="http://www.w3.org/2000/svg" xmlns:xlink="http://www.w3.org/1999/xlink" xmlns:sketch="http://www.bohemiancoding.com/sketch/ns">
    <defs></defs>
    <g id="Design" stroke="none" stroke-width="1" fill="none" fill-rule="evenodd" sketch:type="MSPage">
        <g id="SM2-Search" sketch:type="MSArtboardGroup" transform="translate(-695.000000, -552.000000)" fill="#969696">
            <g id="menu" sketch:type="MSLayerGroup" transform="translate(0.000000, 540.000000)">
                <path d="M717.57781,22.373488 L715.120606,22.373488 C714.635354,22.373488 714.142675,22.8822593 714.142675,23.2598147 L714.142675,25.7851029 L717.571621,25.7851029 C717.432977,27.7211572 717.151977,29.4925727 717.151977,29.4925727 L714.125345,29.4925727 L714.125345,40.4689114 L709.616963,40.4689114 L709.616963,29.4925727 L707.42219,29.4925727 L707.42219,25.7987197 L709.616963,25.7987197 L709.616963,22.7782769 C709.616963,22.2249416 709.505553,18.5286129 714.236755,18.5286129 L717.57781,18.5286129 L717.57781,22.373488 L717.57781,22.373488 Z M712.5,12 C702.834583,12 695,19.8358209 695,29.4987621 C695,39.1641791 702.834583,47 712.5,47 C722.166655,47 730,39.1641791 730,29.4987621 C730,19.8358209 722.166655,12 712.5,12 L712.5,12 Z" id="Fill-192" sketch:type="MSShapeGroup"></path>
            </g>
        </g>
    </g>
</svg>
