<?xml version="1.0" encoding="UTF-8" standalone="no"?>
<svg width="24px" height="24px" viewBox="0 0 24 24" version="1.1" xmlns="http://www.w3.org/2000/svg" xmlns:xlink="http://www.w3.org/1999/xlink" xmlns:sketch="http://www.bohemiancoding.com/sketch/ns">
    <title>icon-plus</title>
    <description>Created with Sketch (http://www.bohemiancoding.com/sketch)</description>
    <defs></defs>
    <g id="Design" stroke="none" stroke-width="1" fill="none" fill-rule="evenodd" sketch:type="MSPage">
        <g id="SM2-Search" sketch:type="MSArtboardGroup" transform="translate(-718.000000, -97.000000)" fill="#0A0B09">
            <g id="rows" sketch:type="MSLayerGroup" transform="translate(40.000000, 40.000000)">
                <g id="search-item-copy-2" sketch:type="MSShapeGroup">
                    <g id="icon-plus" transform="translate(678.000000, 57.000000)">
                        <path d="M16.262,11 L14,11 L14,8.75 C14,8.336 13.676,8 13.262,8 L11.762,8 C11.3465,8 11,8.336 11,8.75 L11,11 L8.762,11 C8.3465,11 8,11.336 8,11.75 L8,13.25 C8,13.664 8.3465,14 8.762,14 L11,14 L11,16.25 C11,16.664 11.3465,17 11.762,17 L13.262,17 C13.676,17 14,16.664 14,16.25 L14,14 L16.262,14 C16.676,14 17,13.664 17,13.25 L17,11.75 C17,11.336 16.676,11 16.262,11" id="Fill-336"></path>
                        <path d="M5.262,0 L1.512,0 C0.6825,0 0,0.6705 0,1.5 L0,5.25 C0,5.664 0.3465,6 0.762,6 L2.262,6 C2.676,6 3,5.664 3,5.25 L3,3 L5.262,3 C5.676,3 6,2.664 6,2.25 L6,0.75 C6,0.336 5.676,0 5.262,0" id="Fill-337"></path>
                        <path d="M5.262,21 L3,21 L3,18.75 C3,18.336 2.676,18 2.262,18 L0.762,18 C0.3465,18 0,18.336 0,18.75 L0,22.5 C0,23.3295 0.6825,24 1.512,24 L5.262,24 C5.676,24 6,23.664 6,23.25 L6,21.75 C6,21.336 5.676,21 5.262,21" id="Fill-338"></path>
                        <path d="M23.262,18 L21.762,18 C21.3465,18 21,18.336 21,18.75 L21,21 L18.762,21 C18.3465,21 18,21.336 18,21.75 L18,23.25 C18,23.664 18.3465,24 18.762,24 L22.512,24 C23.34,24 24,23.3295 24,22.5 L24,18.75 C24,18.336 23.676,18 23.262,18" id="Fill-339"></path>
                        <path d="M22.512,0 L18.762,0 C18.3465,0 18,0.336 18,0.75 L18,2.25 C18,2.664 18.3465,3 18.762,3 L21,3 L21,5.25 C21,5.664 21.3465,6 21.762,6 L23.262,6 C23.676,6 24,5.664 24,5.25 L24,1.5 C24,0.6705 23.34,0 22.512,0" id="Fill-340"></path>
                        <path d="M15,21.75 C15,21.336 14.664,21 14.25,21 L9.75,21 C9.3345,21 9,21.336 9,21.75 L9,23.25 C9,23.664 9.3345,24 9.75,24 L14.25,24 C14.664,24 15,23.664 15,23.25 L15,21.75" id="Fill-341"></path>
                        <path d="M15,0.75 C15,0.336 14.664,0 14.25,0 L9.75,0 C9.3345,0 9,0.336 9,0.75 L9,2.25 C9,2.664 9.3345,3 9.75,3 L14.25,3 C14.664,3 15,2.664 15,2.25 L15,0.75" id="Fill-342"></path>
                        <path d="M24,9.75 C24,9.336 23.664,9 23.25,9 L21.75,9 C21.3345,9 21,9.336 21,9.75 L21,14.25 C21,14.664 21.3345,15 21.75,15 L23.25,15 C23.664,15 24,14.664 24,14.25 L24,9.75" id="Fill-343"></path>
                        <path d="M3,9.75 C3,9.336 2.664,9 2.25,9 L0.75,9 C0.3345,9 0,9.336 0,9.75 L0,14.25 C0,14.664 0.3345,15 0.75,15 L2.25,15 C2.664,15 3,14.664 3,14.25 L3,9.75" id="Fill-344"></path>
                    </g>
                </g>
            </g>
        </g>
    </g>
</svg>