<?xml version="1.0" encoding="iso-8859-1"?>
<!-- Generator: Adobe Illustrator 16.0.0, SVG Export Plug-In . SVG Version: 6.00 Build 0)  -->
<!DOCTYPE svg PUBLIC "-//W3C//DTD SVG 1.1//EN" "http://www.w3.org/Graphics/SVG/1.1/DTD/svg11.dtd">
<svg version="1.1" class="svg-magnify" xmlns="http://www.w3.org/2000/svg" xmlns:xlink="http://www.w3.org/1999/xlink" x="0px" y="0px"
   viewBox="0 0 16 16" style="enable-background:new 0 0 16 16;" xml:space="preserve">
<path style="fill-rule:evenodd;clip-rule:evenodd;" d="M15.707,14.293l-3.112-3.092
  c-0.002-0.002-0.004-0.002-0.006-0.004C13.471,10.025,14,8.575,14,7c0-3.859-3.141-7-7-7S0,3.141,0,7s3.141,7,7,7
  c1.575,0,3.025-0.529,4.196-1.41c0.002,0.002,0.002,0.004,0.004,0.006l3.093,3.111C14.488,15.902,14.744,16,15,16
  s0.512-0.098,0.707-0.293C16.098,15.316,16.098,14.684,15.707,14.293z M11.375,6.906c-0.896,0.225-1.12-1.117-2.188-2.156
  C8,3.594,6.637,3.35,6.812,2.562c0.129-0.576,1.926-0.832,3.656,0.781C12.198,4.958,12,6.75,11.375,6.906z"/>
<g>
</g>
<g>
</g>
<g>
</g>
<g>
</g>
<g>
</g>
<g>
</g>
<g>
</g>
<g>
</g>
<g>
</g>
<g>
</g>
<g>
</g>
<g>
</g>
<g>
</g>
<g>
</g>
<g>
</g>
</svg>
