<?xml version="1.0" encoding="iso-8859-1"?>
<!-- Generator: Adobe Illustrator 16.0.0, SVG Export Plug-In . SVG Version: 6.00 Build 0)  -->
<!DOCTYPE svg PUBLIC "-//W3C//DTD SVG 1.1//EN" "http://www.w3.org/Graphics/SVG/1.1/DTD/svg11.dtd">
<svg version="1.1" class="svg-settings" xmlns="http://www.w3.org/2000/svg" xmlns:xlink="http://www.w3.org/1999/xlink" x="0px" y="0px"
   viewBox="0 0 15.998 15.998" style="enable-background:new 0 0 15.998 15.998;"
   xml:space="preserve">
<path style="fill-rule:evenodd;clip-rule:evenodd;" d="M13.998,7c-0.553,0-1.08-0.443-1.291-0.952
  c-0.21-0.508-0.15-1.194,0.24-1.585l0.707-0.706c0.391-0.391,0.391-1.024,0.001-1.415c-0.391-0.391-1.024-0.391-1.415,0
  c0,0-0.316,0.316-0.707,0.707S10.457,3.5,9.949,3.29C9.442,3.08,8.998,2.553,8.998,2V1c0-0.553-0.447-1-1-1s-1,0.447-1,1v1
  c0,0.553-0.442,1.08-0.95,1.291s-1.192,0.15-1.583-0.24L3.756,2.344c-0.391-0.391-1.024-0.39-1.413,0
  C1.952,2.734,1.952,3.367,2.342,3.758l0.709,0.708C3.441,4.856,3.51,5.545,3.338,6.062C3.168,6.58,2.648,7.016,2.097,7.01L1,7
  C0.448,7,0,7.449,0,8c0,0.553,0.448,1,1,1h1.001c0.552,0,1.087,0.438,1.331,0.925c0.245,0.486,0.188,1.159-0.207,1.546l-0.783,0.77
  c-0.391,0.391-0.39,1.025,0,1.414c0.391,0.391,1.024,0.391,1.414,0.001l0.708-0.708c0.391-0.391,1.075-0.451,1.584-0.24
  c0.508,0.211,0.95,0.738,0.95,1.291v1.001c0,0.552,0.448,1,1,0.999c0.553,0,1-0.447,1-0.999v-1.001c0-0.553,0.444-1.08,0.951-1.289
  c0.508-0.211,1.193-0.15,1.584,0.24l0.707,0.707c0.391,0.391,1.024,0.391,1.413,0c0.391-0.391,0.392-1.024,0.002-1.414l-0.708-0.708
  c-0.391-0.391-0.451-1.076-0.24-1.584S13.445,9,13.998,9h1c0.553,0,1-0.447,1-1s-0.447-1-1-1H13.998z M7.998,10
  c-1.103,0-2-0.897-2-2s0.897-2,2-2s2,0.897,2,2S9.101,10,7.998,10z"/>
<g>
</g>
<g>
</g>
<g>
</g>
<g>
</g>
<g>
</g>
<g>
</g>
<g>
</g>
<g>
</g>
<g>
</g>
<g>
</g>
<g>
</g>
<g>
</g>
<g>
</g>
<g>
</g>
<g>
</g>
</svg>
